<svg id="Layer_1" data-name="Layer 1" xmlns="http://www.w3.org/2000/svg" viewBox="0 0 400.01 495.76"><defs><style>.cls-1{fill:#fff;}.cls-2{fill:#e1251b;}.cls-3{fill:#231f20;}</style></defs><path class="cls-1" d="M953,780.1c-11.32-4.59-40.84-18.61-70.52-49.81-48.59-51.06-76.59-125.74-81-216-3.53-72.34-22-117-29.82-132.89l-5.7-11.6,72.32-71,11.3,5.36c10.52,5,42.32,16.61,110.14,16.71,67.8-.1,99.6-11.72,110.13-16.71l11.28-5.36,72.33,71-5.7,11.6C1140,397.28,1121.48,442,1118,514.31c-4.39,90.24-32.4,164.92-81,216-29.69,31.19-59.21,45.22-70.53,49.81l-6.72,2.72Z" transform="translate(-759.71 -292.61)"/><path class="cls-2" d="M959.72,390.76a117.21,117.21,0,0,1,112.53,84.51l60.56-104.37-54.36-53.38-1.34.63c-13.86,6.58-46.58,17.46-111.23,18.17L932.29,394A117,117,0,0,1,959.72,390.76Z" transform="translate(-759.71 -292.61)"/><path class="cls-2" d="M959.72,625.13a117.21,117.21,0,0,1-112.61-84.78l-21.59,37.08c11.55,57.71,34.88,106,68.87,141.74a215.23,215.23,0,0,0,23.83,21.58l69-118.89A117.39,117.39,0,0,1,959.72,625.13Z" transform="translate(-759.71 -292.61)"/><path class="cls-3" d="M1030.84,431.86a105.54,105.54,0,0,0-17.27-13.08V597.12A105,105,0,0,0,1030.84,584V563.41S1064,549.76,1064,508A103.88,103.88,0,0,0,1030.84,431.86Zm0,107.94V461.51A84.22,84.22,0,0,1,1044.76,508C1044.76,533.8,1030.84,539.8,1030.84,539.8Z" transform="translate(-759.71 -292.61)"/><path class="cls-3" d="M927.93,429.14a84.05,84.05,0,0,1,17.27-4.89V404.7a104.25,104.25,0,0,0,0,206.49V591.65a84.94,84.94,0,0,1-17.27-162.51Z" transform="translate(-759.71 -292.61)"/><path class="cls-3" d="M927.93,441a74,74,0,0,0-11,127.42V541.58a54.32,54.32,0,0,1-11.07-25h22.06v58.33a73.63,73.63,0,0,0,17.27,5.81V435.18A73.17,73.17,0,0,0,927.93,441Zm0,58.33h-22a54.61,54.61,0,0,1,22-35.64Z" transform="translate(-759.71 -292.61)"/><path class="cls-3" d="M988,554.41l.79-.48c.62-.4,1.24-.8,1.84-1.22l.27-.18c.59-.42,1.18-.86,1.76-1.3,5.76-4.48,10.46-10.67,10.46-20.22V479.55h0V426.92c0-16.54-12.53-19.2-25-21.59a103.87,103.87,0,0,0-22.59-1.55V612.12c1.41.06,2.82.11,4.24.11a105.62,105.62,0,0,0,13-.84V560.78l20,46.05a103.88,103.88,0,0,0,16.15-7ZM972.75,424a83.6,83.6,0,0,1,13.09,3v103.6A34.71,34.71,0,0,1,972.75,540Z" transform="translate(-759.71 -292.61)"/><path class="cls-3" d="M951.07,784.87c-11.63-4.71-42-19.12-72.32-51-49.45-52-77.94-127.79-82.4-219.28-3.48-71.38-21.65-115.3-29.3-130.87l-7.34-14.94,77.54-76.14,14.54,6.9c10.21,4.85,41.17,16.12,108,16.21,66.75-.09,97.7-11.37,107.91-16.21l14.54-6.9,77.54,76.14-7.34,14.94c-7.65,15.57-25.82,59.49-29.3,130.87-4.46,91.49-32.95,167.32-82.4,219.28-30.37,31.92-60.69,46.32-72.32,51l-8.65,3.5Zm9.15-7.53,4.9-2c11-4.46,39.81-18.15,68.83-48.65,47.77-50.2,75.31-123.81,79.65-212.88,3.57-73.24,22.39-118.66,30.31-134.79l4.16-8.45-67.41-66.19-8.23,3.9c-13.44,6.38-45.89,17.09-112.21,17.18-66.33-.09-98.78-10.8-112.22-17.17l-8.23-3.91-67.4,66.19,4.15,8.45c7.93,16.13,26.74,61.55,30.31,134.79,4.34,89.07,31.89,162.68,79.66,212.88,29,30.5,57.8,44.19,68.83,48.65Z" transform="translate(-759.71 -292.61)"/></svg>